<svg width="978" height="341" viewBox="0 0 978 341" fill="none" xmlns="http://www.w3.org/2000/svg">
<circle cx="73" cy="179" r="73" fill="#6C63FF"/>
<path d="M304 159.5H271.75V268H234.5V159.5H214V141.5L234.5 131.5V121.5C234.5 109.833 236.417 100.833 240.25 94.5C244.25 88 249.833 83.4167 257 80.75C264.333 78.0833 272.917 76.75 282.75 76.75C290.083 76.75 296.667 77.3333 302.5 78.5C308.5 79.6667 313.333 81 317 82.5L307.5 109.75C304.667 108.917 301.583 108.167 298.25 107.5C294.917 106.667 291.083 106.25 286.75 106.25C281.583 106.25 277.75 107.833 275.25 111C272.917 114.167 271.75 118.167 271.75 123V131.5H304V159.5Z" fill="#111111"/>
<path d="M381.18 128.75C399.513 128.75 413.513 132.75 423.18 140.75C433.013 148.583 437.93 160.667 437.93 177V268H411.93L404.68 249.5H403.68C397.846 256.833 391.68 262.167 385.18 265.5C378.68 268.833 369.763 270.5 358.43 270.5C346.263 270.5 336.18 267 328.18 260C320.18 252.833 316.18 241.917 316.18 227.25C316.18 212.75 321.263 202.083 331.43 195.25C341.596 188.25 356.846 184.417 377.18 183.75L400.93 183V177C400.93 169.833 399.013 164.583 395.18 161.25C391.513 157.917 386.346 156.25 379.68 156.25C373.013 156.25 366.513 157.25 360.18 159.25C353.846 161.083 347.513 163.417 341.18 166.25L328.93 141C336.263 137.167 344.346 134.167 353.18 132C362.18 129.833 371.513 128.75 381.18 128.75ZM386.43 205.25C374.43 205.583 366.096 207.75 361.43 211.75C356.763 215.75 354.43 221 354.43 227.5C354.43 233.167 356.096 237.25 359.43 239.75C362.763 242.083 367.096 243.25 372.43 243.25C380.43 243.25 387.18 240.917 392.68 236.25C398.18 231.417 400.93 224.667 400.93 216V204.75L386.43 205.25Z" fill="#111111"/>
<path d="M513.309 163C513.309 168.167 513.059 173.333 512.559 178.5C512.225 183.5 511.809 188.583 511.309 193.75H511.809C514.309 190.25 516.892 186.75 519.559 183.25C522.225 179.583 525.059 176.167 528.059 173L566.309 131.5H608.309L554.059 190.75L611.559 268H568.559L529.309 212.75L513.309 225.5V268H476.059V78H513.309V163Z" fill="#111111"/>
<path d="M687.338 129C706.171 129 721.088 134.417 732.088 145.25C743.088 155.917 748.588 171.167 748.588 191V209H660.588C660.921 219.5 664.005 227.75 669.838 233.75C675.838 239.75 684.088 242.75 694.588 242.75C703.421 242.75 711.421 241.917 718.588 240.25C725.755 238.417 733.171 235.667 740.838 232V260.75C734.171 264.083 727.088 266.5 719.588 268C712.255 269.667 703.338 270.5 692.838 270.5C679.171 270.5 667.088 268 656.588 263C646.088 257.833 637.838 250.083 631.838 239.75C625.838 229.417 622.838 216.417 622.838 200.75C622.838 184.75 625.505 171.5 630.838 161C636.338 150.333 643.921 142.333 653.588 137C663.255 131.667 674.505 129 687.338 129ZM687.588 155.5C680.421 155.5 674.421 157.833 669.588 162.5C664.921 167.167 662.171 174.417 661.338 184.25H713.588C713.421 175.917 711.255 169.083 707.088 163.75C702.921 158.25 696.421 155.5 687.588 155.5Z" fill="#111111"/>
<path d="M816.043 268H778.793V78H816.043V268Z" fill="#111111"/>
<path d="M835.465 131.5H876.215L901.965 208.25C903.298 211.917 904.298 215.75 904.965 219.75C905.632 223.583 906.132 227.667 906.465 232H907.215C907.715 227.667 908.382 223.583 909.215 219.75C910.215 215.75 911.298 211.917 912.465 208.25L937.715 131.5H977.715L919.965 285.5C914.798 299.667 907.215 310.25 897.215 317.25C887.382 324.417 875.965 328 862.965 328C858.798 328 855.132 327.75 851.965 327.25C848.965 326.917 846.298 326.5 843.965 326V296.5C845.798 296.833 847.965 297.167 850.465 297.5C853.132 297.833 855.882 298 858.715 298C866.548 298 872.715 295.583 877.215 290.75C881.882 286.083 885.298 280.417 887.465 273.75L889.715 267L835.465 131.5Z" fill="#111111"/>
</svg>
